<svg width="48" height="48" viewBox="0 0 48 48" fill="none" xmlns="http://www.w3.org/2000/svg">
<rect width="48" height="48" rx="6" fill="#3F8EF1"/>
<path d="M16.7659 36.256C15.4005 36.256 14.1952 35.9573 13.1499 35.36C12.1045 34.7413 11.2939 33.8773 10.7179 32.768C10.1419 31.6373 9.85388 30.3467 9.85388 28.896V13.6H12.2219V28.96C12.2219 30.5173 12.6379 31.776 13.4699 32.736C14.3019 33.6747 15.4005 34.144 16.7659 34.144H20.2219C21.5872 34.144 22.6859 33.6747 23.5179 32.736C24.3499 31.776 24.7659 30.5173 24.7659 28.96V13.6H27.1339V28.896C27.1339 30.3467 26.8459 31.6373 26.2699 32.768C25.6939 33.8773 24.8832 34.7413 23.8379 35.36C22.7925 35.9573 21.5872 36.256 20.2219 36.256H16.7659Z" fill="#F5F5F5"/>
<path d="M31 36C30.5333 36 30.16 35.8667 29.88 35.6C29.6133 35.3333 29.48 34.9667 29.48 34.5V22H35.58C36.5933 22 37.48 22.1933 38.24 22.58C39.0133 22.9667 39.6067 23.52 40.02 24.24C40.4467 24.9467 40.66 25.76 40.66 26.68V30.92C40.66 32.5867 40.2333 33.8533 39.38 34.72C38.54 35.5733 37.3 36 35.66 36H31ZM35.6 34.3C36.64 34.3 37.4267 34.0133 37.96 33.44C38.4933 32.8667 38.76 32.0133 38.76 30.88V26.72C38.76 25.8133 38.46 25.0867 37.86 24.54C37.2733 23.98 36.4933 23.7 35.52 23.7H31.38V34.3H35.6Z" fill="#F5F5F5"/>
</svg>
